<svg xmlns="http://www.w3.org/2000/svg" width="448" height="448" viewBox="0 0 448 448">
  <defs>
    <style>
      .a {
        fill: #020202;
        fill-rule: evenodd;
      }
    </style>
  </defs>
  <path class="a" fill="" d="M310.78,234.23c2.66-1.91,12.38-3,16.24-1.49s6.6,10.39,6.6,10.39c-1.74-3.39-4.4-7.31-7-8.16s-10,.42-10.82,4.13,2.38,12.72,2.38,12.72a15.78,15.78,0,0,1-6.23-6.15c-1.93-3.92-3.85-9.54-1.2-11.44ZM430.9,277.12l5.7-32.27-25-4.4c.47-5.43.76-10.9.76-16.45s-.29-11-.76-16.46l24.93-4.4-5.68-32.26L406,175.27a187,187,0,0,0-11.28-30.93l21.91-12.65-16.38-28.38L378.32,116a189.71,189.71,0,0,0-21.13-25.23l16.26-19.38-25.1-21.06-16.29,19.4a188.39,188.39,0,0,0-28.48-16.48l8.65-23.77L281.45,18.25,272.79,42a187.23,187.23,0,0,0-32.41-5.66V11H207.61V36.35A187.34,187.34,0,0,0,175.19,42l-8.64-23.75L135.76,29.47l8.64,23.76a188.29,188.29,0,0,0-28.47,16.48L99.65,50.32,74.54,71.38,90.8,90.75A188.88,188.88,0,0,0,69.68,116L47.74,103.32,31.36,131.7l21.9,12.64A186.44,186.44,0,0,0,42,175.27l-24.9-4.39-5.68,32.27,24.93,4.39c-.46,5.43-.75,10.91-.75,16.46s.29,11,.75,16.45l-24.94,4.4,5.7,32.26L42,272.72a187,187,0,0,0,11.26,30.93L31.35,316.3l16.39,28.38L69.67,332A189.62,189.62,0,0,0,90.8,357.24L74.54,376.62l25.1,21.06,16.28-19.4a187.6,187.6,0,0,0,28.48,16.49l-8.65,23.76,30.79,11.21L175.19,406a187.17,187.17,0,0,0,32.42,5.66V437h32.77V411.65A187.23,187.23,0,0,0,272.79,406l8.66,23.75,30.79-11.2-8.65-23.77a188.44,188.44,0,0,0,28.48-16.49l16.28,19.41,25.1-21.07-16.26-19.38A189.62,189.62,0,0,0,378.32,332l21.94,12.66,16.38-28.37-21.91-12.66A186.15,186.15,0,0,0,406,272.72l24.89,4.4ZM379.9,224A156,156,0,0,1,274.12,371.67a41.44,41.44,0,0,1-5.23-9c-2.88-6.12-5.59-12.34-9.1-18.14-7.05-11.63-17.67-20.44-29.8-26.44,12.2,1.2,23.66,7.57,32.15,16.23a69.21,69.21,0,0,1,8.72,11.23,143.07,143.07,0,0,0-4.78-15c-9.32-22.86-25-30.29-30.49-47.25s2.2-25.44,2.2-25.44,25.49-3.6,41.63,8.06,18.34,26.29,18.34,26.29a101.11,101.11,0,0,0,18,3.18c8.07.42,19.07-1.49,19.07-1.49s13.21-2.12,13.94-7.2,6.42-13.57,6.42-13.57A150.83,150.83,0,0,0,351,251.5c-2.93-10.17-1.65-22.05-1.65-22.05S342,215.25,334.63,207s-18.16-17-18.16-17l-2.38-11s0-.21-5.14-5.09-11-10.6-11-10.6-5.3-24.9-20.24-44.07c.22-.51.47-1.09.76-1.74C280.23,113.59,288,106,288,106a24.72,24.72,0,0,0-11.41,1,35.3,35.3,0,0,0-7.09,3.31c-1-.91-2-1.76-3.05-2.56.26-.61.56-1.31.92-2.1,2-4.46,10.82-13.15,10.82-13.15a28.3,28.3,0,0,0-13,1.17A50.71,50.71,0,0,0,252.94,100c-13.58-5.35-29.45-5.46-49.27-4.78-23.29.8-34.89-10.06-39.17-15.4A156,156,0,0,1,379.9,224ZM267.52,373.74a155.93,155.93,0,0,1-16.38,3.81c-3.64-13.09-8.24-25.83-16.46-36.92-10.05-13.54-24-21.33-39.82-24.6,16.16-1.25,31.47,3.05,44,13.42,11.38,9.39,18.91,21.88,24.07,35.5h0c0,.16.11.3.16.45l.27.74a33,33,0,0,0,4.11,7.61Zm-139.79-27.1a157.25,157.25,0,0,1-14.67-13.11,24.61,24.61,0,0,0,2.4-.57c10.47-3,17.13-14.79,11.35-24.94-3.5-6.24-14.25-11.94-20.1-4.95a10,10,0,0,0,8.81,16.43c-8.25,6.52-18.52-2.3-19.33-11a17.92,17.92,0,0,1,11.75-18.39c14.8-5.47,30.06,5,34.64,19.07a22.62,22.62,0,0,1,13.33-3.79,23.26,23.26,0,0,1,5.4.88c-1.25-2.15-2.56-4.26-4-6.31-11.39-16.55-31.48-30.37-52.44-23.61A32.41,32.41,0,0,0,85.22,295.1a155,155,0,0,1-10.08-24.61l.24-.27c2.56-14.87,14-65.12,54.38-96.1,47.87-36.67,87.85-31.05,87.85-31.05a12.45,12.45,0,0,0-1.37,6.36,11.74,11.74,0,0,0,1.46,5.19s5.69-21.31,22.56-37.74S266.4,98.65,266.4,98.65s-6,11.77-7.89,23.74-3.3,22.37-3.3,22.37a6.21,6.21,0,0,0,3.52-3.33l-.13.27c1.73,1.75,6.73,6.59,19.72,18,17.61,15.47,23.48,22,23.48,22l-3.12-.22c2.45,2.48,5.25,6.89,4,10.5a3.84,3.84,0,0,1-2.95,2.24s-4.84.2-5.76-3.62-5.13-9.86-8.43-12.3c-4.15-3.06-8.87-3.14-12.93.53a30.24,30.24,0,0,0-3.12,3,21.42,21.42,0,0,1,6.05-.21,14.82,14.82,0,0,1,3.94,1.06,22.9,22.9,0,0,0-4.12,2.22l-.92.85c0-1-8.66-.7-10.91,1.38,0,0,9.81.74,16.41,7.84s8.81,12.94,8.81,12.94c.57-.58.09-6.51.09-7.74l2.93-3.71s5.43,1.48,8.28.84a5.86,5.86,0,0,0,2-.83l.07-.06,2,4.61s5.5,2.54,14.13,10.6S335,232.21,335,232.21s1.47,12.51,3.49,21.84a19.82,19.82,0,0,0,6.58,10.65l0-.12c.82,3.34,1.52,5.58,1.52,5.58s-4.22,8.27-4.77,13.36-20.91-10.6-28.24-21.42-15.41-25.65-15.41-25.65A13.75,13.75,0,0,1,302.9,239l1.83,1.69S299.6,228,281.62,224.58s-22.19,10.6-22.19,12.93v2.33s1.47-3,2.94-4l1.46-1.06.06.29c1.83-.35,3.79,2,3.79,2s-.43.42-.45,2,1.71,3.07,1.71,3.07,0-2.19,1.5-2.77,3,1.53,3,1.53l-.14,1.89c-.14,1.89,2.14,3.41,2.14,3.41a2.24,2.24,0,0,1,.73-2c1-.93,2.83.26,2.83.26s-.46-.15-.63-1.79,1.61-2.95,1.61-2.95l-1.75-.5a8,8,0,0,0-3.72,0l-.56-1.59a3.67,3.67,0,0,1,.68-3.15l-1.88-.15a5,5,0,0,0-3.28,1s-.77.09-2.52-1.17a3.05,3.05,0,0,1,.45-5.09c1.94-1,6-.68,11.8,4s12.21,21.07,12.21,21.07c-8.6-1.45-14.7-3.49-19-5.71a21.91,21.91,0,0,0,3.67,2.26c10.45,5.08,33.75,17.17,33.75,17.17s6.78,8.27,11,12.29,5.5,5.52,5.5,5.52A33.06,33.06,0,0,1,314.45,288l-7.33.21c3.7,0-10.35-31.12-48.61-36.89,0,0,2.2-1.48,7.16-.85l4.95.64c-13-9.42-28.31-1.21-40.54-3.82-35.7-7.67-37.09-55-16.32-68.68,0,0-17.42,5.93-23.84,28.62s16.69,48.12,16.69,48.12,2.93,17.81,5.68,27.77a123,123,0,0,0,5.87,16.75c-17.88-14.44-22.91-38.82-26.74-60.4-6,14.09-7.26,22.27-6.54,33.79,0,0-32.47-20.94-64.9-19.42A64.5,64.5,0,0,1,145.63,262c18.26,10.49,29.31,29.14,37.64,47.85,7.58,17,14.62,35.45,29.36,47.73A55.7,55.7,0,0,0,237.38,370c-20.7,4.22-40-5.53-52.71-21.6a100.84,100.84,0,0,1-10.07-16h0c-5.27-9.91-12.22-19.05-23.35-16.81a9.23,9.23,0,0,0-7.65,8,6.8,6.8,0,0,0,6.55,7.42h-.06c2.39.09,4.4-1.09,4.75-3.59,0,0,0-.1,0,.07a3.44,3.44,0,0,0-.59-2.72,4.42,4.42,0,0,0-4.59-1.75c2.47-2.07,5.84-1.49,8.11.33h0c12.25,9.23,15.88,43.35,47.09,48.65-22.4,2.56-41.15-15-50.31-34.39-4.89,2.36-10.85.64-14.93-3a35.41,35.41,0,0,1-11.89,12.08ZM69.24,243c-.61-5.09-1-10.25-1.1-15.48l5.24-2.95s-2.6,6.28-4.14,18.43Zm-1-25.84a156.17,156.17,0,0,1,3.56-27L88.07,183s-2.21,2.55-10.28,14c-4.27,6.06-7.47,13.77-9.54,20.16Zm5.09-33.34a155.17,155.17,0,0,1,18.72-42.84c3-.71,7.93-1.75,13.26-2.52,8.8-1.27,22.75,1.27,22.75,1.27s-3.3.43-25.32,14.43c-14,8.91-24,21.61-29.41,29.66Zm22.29-48.25a156.5,156.5,0,0,1,67.17-55C165.25,98.64,181.65,110,181.65,110s-7.34-.43-38.53,3.39C122,116,104.67,128,95.63,135.52Zm110.49,68.66a18.77,18.77,0,0,0,8.25,13c-6.41-8.89-5.19-21.85,3.83-28.58,4-3,9.06-3.73,13.4-1,4.05,2.57,6.1,8.53,2.87,12.6,0,0,0,0,0,0-2.34,2.83-6.52,3.23-8.87.22-2.77-3.59,2.21-8,4.79-4.07.66-3.79-4.11-4.82-6.76-3.58a6.22,6.22,0,0,0-.76.43h0l-.14.11-.18.12c-6.13,4.35-8.29,15.76-1,20a11.92,11.92,0,0,1-.5-10.12c3.48,6.05,12.94,5.78,17.7.69,6.83-7.29,3.28-18.9-5.1-23.11-16.68-8-29.38,9.22-27.54,23.29Zm78.46-7.87a61.62,61.62,0,0,0-6-7.4,11.1,11.1,0,0,1,9.15,0,9.44,9.44,0,0,1-3.17,7.43ZM95.83,186.84a56.4,56.4,0,0,1,21.46-11.44c-2.34,2-12.43,13.45-13.76,14.2A28.82,28.82,0,0,0,94.36,197l6.42-1.27-7.52,4.66a79.9,79.9,0,0,0-12.84,10s5-14.63,15.41-23.54Zm17.61-31.16c14.3-9.54,38.33-17.38,38.33-17.38s-4.77-2.12-11.56-5.52S124.44,129,124.44,129s4.59-4.67,20.36-8.7,37.6-4.87,52.09-2.11S223.3,129.6,223.3,129.6l-2,2.33s-3.85-1.69-19.07-5.08-31.73-1.7-31.73-1.7,0,.21,7,1.27,15.77,5.3,15.77,5.3-2.57-.84-16.87-1.48a213.34,213.34,0,0,0-28.25.85,120.2,120.2,0,0,1,13.21,3.18,161.38,161.38,0,0,1,17.24,7s-4-.21-17.79,1.28-20,5.08-20,5.08l6.42-.21a119,119,0,0,1,15,.85s-4.4.21-23.29,5.09-25.49,11.23-25.49,11.23a75.57,75.57,0,0,1,10.08-.63,59.5,59.5,0,0,1,7.17.22l-5.88,4.63-9.72-.19a39.19,39.19,0,0,0-20,5.51s4-8.9,18.35-18.44Zm62.34-60.24s10.84,5.75,34.13,7.24c14,.89,25.49.33,36.23,2.94-2.2,1.68-4.39,3.58-6.51,5.56a56.89,56.89,0,0,0-15-2.57,33,33,0,0,1,6.6,2.76,19.09,19.09,0,0,1,4.78,3.41c-.93.94-1.83,1.89-2.7,2.83a61.66,61.66,0,0,0-13.54-7,69.23,69.23,0,0,0-21.55-3.5s13,4.14,23.48,11.13a64.2,64.2,0,0,1,6.6,5l-.28.34-1.92,1.75s-1.65-1.27-7.34-5.3-13.2-5.72-25.67-10.39-17.26-14.23-17.26-14.23Zm91.35,21c17.43,14.84,19.08,37.31,19.08,37.31-3.67-3-7.7-5.93-7.7-5.93s-3.75-9.22-16.13-22.33c.6-3.33,1.33-7,2.19-10.43q.06-.28.15-.57c.8.61,1.61,1.26,2.41,1.95Zm19.44,95.28-6.78,4.51s-1-16.36-15.32-26.76c0,0,10.09,2.5,15.9,8.65a23.48,23.48,0,0,1,6.2,13.6Zm-96.84-28.92c-20.28,28.39-18.85,49-17.33,79.93a94.3,94.3,0,0,0-36.76-10.47,61.33,61.33,0,0,1,7.65-27.55,59.43,59.43,0,0,1,18.4-19.67,59,59,0,0,0-11.36,32.55,100.62,100.62,0,0,1,9.88-23.21,95.18,95.18,0,0,1,29.52-31.58Zm68.91-74.66c-6.59,12.48-6.23,22.36-7.18,32a19.31,19.31,0,0,1-7.75,14s-3.81-13.33.31-24.53,14.62-21.45,14.62-21.45Zm74.61,142.6a7.46,7.46,0,0,0-3.21-3.39,37.18,37.18,0,0,1,2.85,6.89c1.46,4.56,2.38,10.92,3.48,12.19s4.31.53,4.31.53c-3.84,3.73-12.09-2.11-14.05-9.32-2.53-8.24-5.48-16.33-5.48-16.33s5.68.42,8.25,2.33,3.85,7.1,3.85,7.1Z"/>
</svg>
